<svg aria-hidden="true" style="position: absolute; width: 0; height: 0; overflow: hidden;" version="1.1" xmlns="http://www.w3.org/2000/svg" xmlns:xlink="http://www.w3.org/1999/xlink">
<defs>

<symbol id="icon-play2" viewBox="0 0 32 32">
<path d="M16 0c-8.837 0-16 7.163-16 16s7.163 16 16 16 16-7.163 16-16-7.163-16-16-16zM16 29c-7.18 0-13-5.82-13-13s5.82-13 13-13 13 5.82 13 13-5.82 13-13 13zM12 9l12 7-12 7z"></path>
</symbol>

<symbol id="icon-down-arrow" viewBox="0 0 56 32">
<path d="M27.997 31.994c-0.945 0-1.891-0.374-2.614-1.104l-24.283-24.515c-1.446-1.46-1.446-3.836 0-5.296s3.8-1.46 5.246 0l21.651 21.895 21.67-21.876c1.446-1.46 3.8-1.46 5.246 0s1.446 3.836 0 5.296l-24.283 24.515c-0.723 0.73-1.668 1.085-2.632 1.085z"></path>
</symbol>

<symbol id="icon-radio" viewBox="0 0 43 32">
<path d="M21.192 19.032c1.858 0 3.364-1.514 3.364-3.382s-1.506-3.382-3.364-3.382-3.364 1.514-3.364 3.382c0 1.868 1.506 3.382 3.364 3.382z"></path>
<path d="M34.414 32c-0.417 0-0.834-0.184-1.126-0.529-0.519-0.625-0.431-1.551 0.19-2.073 4.271-3.573 6.72-8.829 6.72-14.409 0-4.58-1.66-8.991-4.68-12.424-0.534-0.61-0.483-1.536 0.124-2.073s1.528-0.485 2.062 0.125c3.495 3.962 5.419 9.071 5.419 14.372 0 6.462-2.837 12.534-7.781 16.673-0.263 0.228-0.592 0.338-0.929 0.338z"></path>
<path d="M7.978 31.353c-0.351 0-0.709-0.125-0.987-0.39-4.446-4.095-6.991-9.917-6.991-15.974 0-5.366 1.967-10.52 5.536-14.504 0.541-0.603 1.463-0.654 2.062-0.11s0.651 1.47 0.11 2.073c-3.086 3.448-4.782 7.903-4.782 12.541 0 5.234 2.201 10.27 6.040 13.813 0.592 0.551 0.636 1.478 0.088 2.080-0.285 0.309-0.68 0.471-1.075 0.471z"></path>
<path d="M30.574 27.038c-0.292 0-0.585-0.125-0.782-0.368-0.358-0.434-0.3-1.081 0.132-1.441 2.976-2.492 4.68-6.146 4.68-10.027 0-3.19-1.155-6.263-3.261-8.645-0.373-0.426-0.336-1.073 0.088-1.448s1.068-0.338 1.441 0.088c2.435 2.757 3.773 6.315 3.773 10.005 0 4.499-1.974 8.726-5.411 11.6-0.198 0.162-0.431 0.235-0.658 0.235z"></path>
<path d="M12.168 26.59c-0.249 0-0.49-0.088-0.687-0.272-3.093-2.852-4.863-6.903-4.863-11.123 0-3.734 1.367-7.322 3.854-10.093 0.373-0.419 1.024-0.456 1.441-0.074 0.417 0.375 0.453 1.022 0.073 1.448-2.15 2.396-3.327 5.499-3.327 8.726 0 3.646 1.536 7.145 4.205 9.615 0.417 0.382 0.439 1.029 0.059 1.448-0.205 0.213-0.475 0.323-0.753 0.323z"></path>
<path d="M26.523 22.252c-0.176 0-0.344-0.073-0.468-0.221-0.212-0.257-0.183-0.64 0.080-0.86 1.77-1.485 2.786-3.661 2.786-5.969 0-1.897-0.687-3.727-1.938-5.146-0.219-0.25-0.197-0.64 0.051-0.86s0.636-0.198 0.856 0.051c1.448 1.639 2.245 3.756 2.245 5.954 0 2.676-1.177 5.19-3.225 6.91-0.117 0.096-0.256 0.14-0.388 0.14z"></path>
<path d="M15.569 21.988c-0.146 0-0.293-0.051-0.41-0.162-1.843-1.698-2.896-4.109-2.896-6.616 0-2.227 0.812-4.359 2.296-6.006 0.227-0.25 0.607-0.272 0.856-0.044s0.271 0.61 0.044 0.86c-1.28 1.426-1.982 3.271-1.982 5.197 0 2.169 0.914 4.256 2.501 5.719 0.249 0.228 0.263 0.61 0.037 0.86-0.124 0.125-0.285 0.191-0.446 0.191z"></path>
</symbol>

<symbol id="icon-search" viewBox="0 0 32 32">
<path d="M13.128 26.467c-7.237 0-13.128-5.929-13.128-13.234s5.891-13.233 13.128-13.233c7.237 0 13.128 5.939 13.128 13.233s-5.881 13.234-13.128 13.234zM13.128 2.969c-5.617 0-10.182 4.603-10.182 10.264s4.566 10.264 10.182 10.264c5.616 0 10.182-4.603 10.182-10.264s-4.566-10.264-10.182-10.264z"></path>
<path d="M30.026 32c-0.481 0-0.962-0.178-1.345-0.535l-8.523-8.087c-0.786-0.752-0.825-1.999-0.079-2.801s1.983-0.831 2.779-0.089l8.523 8.087c0.785 0.752 0.825 1.999 0.079 2.801-0.383 0.416-0.903 0.624-1.433 0.624z"></path>
</symbol>

<symbol id="icon-songs" viewBox="0 0 20 32">
<path d="M6.908 31.414c2.546-1.209 3.754-3.888 2.697-5.985s-3.978-2.815-6.524-1.606-3.754 3.888-2.697 5.985c1.057 2.096 3.978 2.816 6.524 1.607z"></path>
<path d="M8.44 4.123v16.534c0 0 0.021 1.962-1.162 2.254 0 0-3.206 0.319-4.199 0.911s1.489 2.659 1.489 2.659l0.425 2.161h2.769l2.021-0.351c0 0 0.593-1.716 0.593-5.379v-11.556c0 0-0.193-1.785 2.13-1.973l6.195-1.315c0 0 1.035-0.146 0.968-2.349l0.022-4.321c0 0 0.045-1.994-2.248-1.222l-7.744 1.597c0 0-1.366 0.178-1.259 2.349z"></path>
</symbol>

<symbol id="icon-albums" viewBox="0 0 23 32">
<path d="M20.413 32h-17.653c-1.523 0-2.76-1.266-2.76-2.818v-17.981c0-1.552 1.236-2.812 2.76-2.812h17.647c1.523 0 2.759 1.26 2.759 2.812v17.981c0.006 1.552-1.23 2.818-2.753 2.818zM2.76 10.338c-0.465 0-0.848 0.39-0.848 0.864v17.981c0 0.48 0.382 0.864 0.848 0.864h17.647c0.472 0 0.848-0.39 0.848-0.864v-17.981c0-0.48-0.382-0.864-0.848-0.864h-17.647z"></path>
<path d="M20.712 6.279h-1.912c0-0.24-0.191-0.442-0.433-0.442h-13.562c-0.236 0-0.433 0.195-0.433 0.442h-1.912c0-1.318 1.052-2.39 2.345-2.39h13.562c1.294 0 2.345 1.071 2.345 2.39z"></path>
<path d="M18.093 2h-1.912c0-0.032-0.026-0.052-0.051-0.052h-9.866c-0.026 0-0.051 0.026-0.051 0.052h-1.912c0-1.104 0.879-2 1.963-2h9.866c1.083 0 1.963 0.896 1.963 2z"></path>
</symbol>

<symbol id="icon-plus" viewBox="0 0 24 24">
<path d="M5 13h6v6c0 0.552 0.448 1 1 1s1-0.448 1-1v-6h6c0.552 0 1-0.448 1-1s-0.448-1-1-1h-6v-6c0-0.552-0.448-1-1-1s-1 0.448-1 1v6h-6c-0.552 0-1 0.448-1 1s0.448 1 1 1z"></path>
</symbol>

<symbol id="icon-toggle" viewBox="0 0 42 32">
<path d="M35.832 32h-29.924c-3.254 0-5.907-2.613-5.907-5.819v-20.362c0-3.206 2.653-5.819 5.907-5.819h29.924c3.255 0 5.907 2.613 5.907 5.819v20.362c0 3.206-2.653 5.819-5.907 5.819zM5.907 2.435c-1.895 0-3.436 1.518-3.436 3.384v20.362c0 1.867 1.541 3.384 3.436 3.384h29.924c1.895 0 3.436-1.518 3.436-3.384v-20.362c0-1.867-1.541-3.384-3.436-3.384h-29.924z"></path>
<path d="M15.531 1.217h-2.472v30.255h2.472v-30.255z"></path>
<path d="M10.233 9.065h-4.35c-0.684 0-1.236-0.544-1.236-1.217s0.552-1.217 1.236-1.217h4.35c0.684 0 1.236 0.544 1.236 1.217s-0.56 1.217-1.236 1.217z"></path>
<path d="M10.233 13.902h-4.35c-0.684 0-1.236-0.544-1.236-1.217s0.552-1.217 1.236-1.217h4.35c0.684 0 1.236 0.544 1.236 1.217s-0.56 1.217-1.236 1.217z"></path>
<path d="M10.348 18.731h-4.342c-0.684 0-1.236-0.544-1.236-1.217s0.552-1.217 1.236-1.217h4.35c0.684 0 1.236 0.544 1.236 1.217s-0.56 1.217-1.244 1.217z"></path>
</symbol>

<symbol id="icon-close" viewBox="0 0 24 24">
<path d="M3.984 5.016v13.969h8.016v2.016h-8.016q-0.797 0-1.383-0.609t-0.586-1.406v-13.969q0-0.797 0.586-1.406t1.383-0.609h8.016v2.016h-8.016zM17.016 6.984l4.969 5.016-4.969 5.016-1.406-1.453 2.578-2.578h-10.172v-1.969h10.172l-2.578-2.625z"></path>
</symbol>

<symbol id="icon-shuffle1" viewBox="0 0 44 32">
<path d="M36.279 27.492h-9.105c-0.5 0-0.977-0.228-1.314-0.612l-16-18.776h-8.116c-0.965 0-1.744-0.803-1.744-1.798s0.779-1.798 1.744-1.798h8.907c0.5 0 0.977 0.228 1.314 0.611l16 18.775h8.314c0.965 0 1.744 0.803 1.744 1.799s-0.779 1.798-1.744 1.798z"></path>
<path d="M33.872 32l8.942-5.551v-1.595l-8.942-5.443-1.151 0.959v10.647z"></path>
<path d="M33.674 32c0.527 0 0.954-0.44 0.954-0.983s-0.427-0.983-0.954-0.983c-0.527 0-0.953 0.44-0.953 0.983s0.427 0.983 0.953 0.983z"></path>
<path d="M33.674 21.353c0.527 0 0.954-0.44 0.954-0.983s-0.427-0.983-0.954-0.983-0.953 0.44-0.953 0.983c0 0.543 0.427 0.983 0.953 0.983z"></path>
<path d="M42.244 26.641c0.527 0 0.954-0.44 0.954-0.983s-0.427-0.983-0.954-0.983c-0.527 0-0.953 0.44-0.953 0.983s0.427 0.983 0.953 0.983z"></path>
<path d="M34.663 12.613l8.942-5.551v-1.595l-8.942-5.443-1.151 0.959v10.647z"></path>
<path d="M34.465 12.613c0.527 0 0.953-0.44 0.953-0.983s-0.427-0.983-0.953-0.983c-0.527 0-0.953 0.44-0.953 0.983s0.427 0.983 0.953 0.983z"></path>
<path d="M34.465 1.966c0.527 0 0.953-0.44 0.953-0.983s-0.427-0.983-0.953-0.983c-0.527 0-0.953 0.44-0.953 0.983s0.427 0.983 0.953 0.983z"></path>
<path d="M43.047 7.254c0.526 0 0.953-0.44 0.953-0.983s-0.427-0.983-0.953-0.983c-0.527 0-0.954 0.44-0.954 0.983s0.427 0.983 0.954 0.983z"></path>
<path d="M10.849 27.492h-9.105c-0.965 0-1.744-0.803-1.744-1.798s0.779-1.799 1.744-1.799h8.314l16.012-18.775c0.337-0.384 0.814-0.611 1.314-0.611h8.907c0.965 0 1.744 0.803 1.744 1.798s-0.779 1.798-1.744 1.798h-8.116l-16.012 18.776c-0.337 0.384-0.814 0.612-1.314 0.612z"></path>
</symbol>

<symbol id="icon-shuffle" viewBox="0 0 38 32">
<path d="M25.139 13.247l9.674-5.828v-1.669l-9.674-5.725-1.243 1.001v11.193z"></path>
<path d="M24.921 13.247c0.566 0 1.025-0.46 1.025-1.027s-0.459-1.027-1.025-1.027c-0.566 0-1.025 0.46-1.025 1.027s0.459 1.027 1.025 1.027z"></path>
<path d="M24.921 2.054c0.566 0 1.025-0.46 1.025-1.027s-0.459-1.027-1.025-1.027c-0.566 0-1.025 0.46-1.025 1.027s0.459 1.027 1.025 1.027z"></path>
<path d="M34.197 7.612c0.566 0 1.025-0.46 1.025-1.027s-0.459-1.027-1.025-1.027c-0.566 0-1.025 0.46-1.025 1.027s0.459 1.027 1.025 1.027z"></path>
<path d="M16.080 18.753l-9.674 5.828v1.669l9.674 5.725 1.243-1.014v-11.18z"></path>
<path d="M16.298 20.807c0.566 0 1.025-0.46 1.025-1.027s-0.459-1.027-1.025-1.027c-0.566 0-1.025 0.46-1.025 1.027s0.459 1.027 1.025 1.027z"></path>
<path d="M16.298 31.987c0.566 0 1.025-0.46 1.025-1.027s-0.459-1.027-1.025-1.027-1.025 0.46-1.025 1.027c0 0.567 0.459 1.027 1.025 1.027z"></path>
<path d="M7.021 26.442c0.566 0 1.025-0.46 1.025-1.027s-0.459-1.027-1.025-1.027-1.025 0.46-1.025 1.027c0 0.567 0.459 1.027 1.025 1.027z"></path>
<path d="M29.854 26.66h-21.244v-2.567h21.244c3.306 0 5.984-2.683 5.984-5.994h2.563c0 4.711-3.831 8.562-8.546 8.562z"></path>
<path d="M2.563 14.299h-2.563c0-4.724 3.831-8.562 8.546-8.562h21.244v2.567h-21.244c-3.306 0-5.984 2.683-5.984 5.994z"></path>
</symbol>

<symbol id="icon-backward2" viewBox="0 0 32 32">
<path d="M18 5v10l10-10v22l-10-10v10l-11-11z"></path>
</symbol>

<symbol id="icon-forward3" viewBox="0 0 32 32">
<path d="M16 27v-10l-10 10v-22l10 10v-10l11 11z"></path>
</symbol>

<symbol id="icon-play3" viewBox="0 0 32 32">
<path d="M6 4l20 12-20 12z"></path>
</symbol>

<symbol id="icon-dotted" viewBox="0 0 32 32">
<path d="M8 16c0 2.209-1.791 4-4 4s-4-1.791-4-4c0-2.209 1.791-4 4-4s4 1.791 4 4z"></path>
<path d="M20 16c0 2.209-1.791 4-4 4s-4-1.791-4-4c0-2.209 1.791-4 4-4s4 1.791 4 4z"></path>
<path d="M32 16c0 2.209-1.791 4-4 4s-4-1.791-4-4c0-2.209 1.791-4 4-4s4 1.791 4 4z"></path>
</symbol>


<!-- problems -->
<!-- problems -->
<!-- problems -->
<!-- problems -->
<!-- problems -->
<!-- problems -->
<!-- problems -->

<symbol id="icon-play" viewBox="0 0 32 32">
<path fill="none" stroke="#e63e43" style="stroke: var(--color11, #e63e43)" stroke-linejoin="miter" stroke-linecap="butt" stroke-miterlimit="4" stroke-width="2.56" d="M30.72 16c0 8.13-6.59 14.72-14.72 14.72s-14.72-6.59-14.72-14.72c0-8.13 6.59-14.72 14.72-14.72s14.72 6.59 14.72 14.72z"></path>
<path fill="#e63e43" style="fill: var(--color11, #e63e43)" d="M13.926 21.76l8.732-5.072v-1.45l-8.732-4.975-1.126 0.875v9.727z"></path>
<path fill="#e63e43" style="fill: var(--color11, #e63e43)" d="M13.73 21.76c0.513 0 0.93-0.401 0.93-0.897s-0.416-0.897-0.93-0.897c-0.513 0-0.93 0.401-0.93 0.897s0.416 0.897 0.93 0.897z"></path>
<path fill="#e63e43" style="fill: var(--color11, #e63e43)" d="M13.73 12.033c0.513 0 0.93-0.401 0.93-0.897s-0.416-0.897-0.93-0.897c-0.513 0-0.93 0.401-0.93 0.897s0.416 0.897 0.93 0.897z"></path>
<path fill="#e63e43" style="fill: var(--color11, #e63e43)" d="M22.11 16.859c0.513 0 0.93-0.401 0.93-0.897s-0.416-0.897-0.93-0.897c-0.513 0-0.93 0.401-0.93 0.897s0.416 0.897 0.93 0.897z"></path>
</symbol>

<symbol id="icon-browse" viewBox="0 0 32 32">
<path stroke-linejoin="miter" stroke-linecap="butt" stroke-miterlimit="4" stroke-width="2.1818" d="M2.909 1.091h8.727c1.004 0 1.818 0.814 1.818 1.818v8.727c0 1.004-0.814 1.818-1.818 1.818h-8.727c-1.004 0-1.818-0.814-1.818-1.818v-8.727c0-1.004 0.814-1.818 1.818-1.818z"></path>
<path stroke-linejoin="miter" stroke-linecap="butt" stroke-miterlimit="4" stroke-width="2.1818" d="M20.364 1.091h8.727c1.004 0 1.818 0.814 1.818 1.818v8.727c0 1.004-0.814 1.818-1.818 1.818h-8.727c-1.004 0-1.818-0.814-1.818-1.818v-8.727c0-1.004 0.814-1.818 1.818-1.818z"></path>
<path stroke-linejoin="miter" stroke-linecap="butt" stroke-miterlimit="4" stroke-width="2.1818" d="M2.909 18.545h8.727c1.004 0 1.818 0.814 1.818 1.818v8.727c0 1.004-0.814 1.818-1.818 1.818h-8.727c-1.004 0-1.818-0.814-1.818-1.818v-8.727c0-1.004 0.814-1.818 1.818-1.818z"></path>
<path stroke-linejoin="miter" stroke-linecap="butt" stroke-miterlimit="4" stroke-width="2.1818" d="M20.364 18.545h8.727c1.004 0 1.818 0.814 1.818 1.818v8.727c0 1.004-0.814 1.818-1.818 1.818h-8.727c-1.004 0-1.818-0.814-1.818-1.818v-8.727c0-1.004 0.814-1.818 1.818-1.818z"></path>
</symbol>

<symbol id="icon-download" viewBox="0 0 32 32">
<path fill="none" stroke="#e54b55" style="stroke: var(--color12, #e54b55)" stroke-linejoin="miter" stroke-linecap="butt" stroke-miterlimit="4" stroke-width="2.4615" d="M30.498 15.865c0 8.082-6.552 14.634-14.634 14.634s-14.634-6.552-14.634-14.634c0-8.082 6.552-14.634 14.634-14.634s14.634 6.552 14.634 14.634z"></path>
<path d="M15.865 24.48c-0.677 0-1.231-0.554-1.231-1.231v-14.769c0-0.677 0.554-1.231 1.231-1.231s1.231 0.554 1.231 1.231v14.769c0 0.689-0.542 1.231-1.231 1.231z"></path>
<path d="M15.865 24.48c-0.32 0-0.628-0.123-0.874-0.357-0.48-0.48-0.48-1.255 0-1.735l6.302-6.302c0.48-0.48 1.255-0.48 1.735 0s0.48 1.255 0 1.735l-6.289 6.302c-0.234 0.246-0.554 0.357-0.874 0.357z"></path>
<path d="M15.865 24.48c-0.32 0-0.628-0.123-0.874-0.357l-6.302-6.302c-0.48-0.48-0.48-1.255 0-1.735s1.255-0.48 1.735 0l6.302 6.302c0.48 0.48 0.48 1.255 0 1.735-0.222 0.246-0.542 0.357-0.862 0.357z"></path>
</symbol>

<symbol id="icon-playlist" viewBox="0 0 35 32">
<path stroke-linejoin="miter" stroke-linecap="butt" stroke-miterlimit="4" stroke-width="2.0870" d="M2.783 1.043h4.174c0.96 0 1.739 0.779 1.739 1.739v4.174c0 0.96-0.779 1.739-1.739 1.739h-4.174c-0.961 0-1.739-0.779-1.739-1.739v-4.174c0-0.961 0.779-1.739 1.739-1.739z"></path>
<path stroke-linejoin="miter" stroke-linecap="butt" stroke-miterlimit="4" stroke-width="2.0870" d="M2.783 12.174h4.174c0.96 0 1.739 0.779 1.739 1.739v4.174c0 0.96-0.779 1.739-1.739 1.739h-4.174c-0.961 0-1.739-0.779-1.739-1.739v-4.174c0-0.96 0.779-1.739 1.739-1.739z"></path>
<path stroke-linejoin="miter" stroke-linecap="butt" stroke-miterlimit="4" stroke-width="2.0870" d="M2.783 23.304h4.174c0.96 0 1.739 0.779 1.739 1.739v4.174c0 0.96-0.779 1.739-1.739 1.739h-4.174c-0.961 0-1.739-0.779-1.739-1.739v-4.174c0-0.96 0.779-1.739 1.739-1.739z"></path>
<path stroke-linejoin="miter" stroke-linecap="butt" stroke-miterlimit="4" stroke-width="2.0870" d="M15.304 1.043h4.174c0.96 0 1.739 0.779 1.739 1.739v4.174c0 0.96-0.779 1.739-1.739 1.739h-4.174c-0.96 0-1.739-0.779-1.739-1.739v-4.174c0-0.961 0.779-1.739 1.739-1.739z"></path>
<path stroke-linejoin="miter" stroke-linecap="butt" stroke-miterlimit="4" stroke-width="2.0870" d="M15.304 12.174h4.174c0.96 0 1.739 0.779 1.739 1.739v4.174c0 0.96-0.779 1.739-1.739 1.739h-4.174c-0.96 0-1.739-0.779-1.739-1.739v-4.174c0-0.96 0.779-1.739 1.739-1.739z"></path>
<path stroke-linejoin="miter" stroke-linecap="butt" stroke-miterlimit="4" stroke-width="2.0870" d="M15.304 23.304h4.174c0.96 0 1.739 0.779 1.739 1.739v4.174c0 0.96-0.779 1.739-1.739 1.739h-4.174c-0.96 0-1.739-0.779-1.739-1.739v-4.174c0-0.96 0.779-1.739 1.739-1.739z"></path>
<path stroke-linejoin="miter" stroke-linecap="butt" stroke-miterlimit="4" stroke-width="2.0870" d="M27.826 1.043h4.174c0.961 0 1.739 0.779 1.739 1.739v4.174c0 0.96-0.779 1.739-1.739 1.739h-4.174c-0.96 0-1.739-0.779-1.739-1.739v-4.174c0-0.961 0.779-1.739 1.739-1.739z"></path>
<path stroke-linejoin="miter" stroke-linecap="butt" stroke-miterlimit="4" stroke-width="2.0870" d="M27.826 12.174h4.174c0.961 0 1.739 0.779 1.739 1.739v4.174c0 0.96-0.779 1.739-1.739 1.739h-4.174c-0.96 0-1.739-0.779-1.739-1.739v-4.174c0-0.96 0.779-1.739 1.739-1.739z"></path>
<path stroke-linejoin="miter" stroke-linecap="butt" stroke-miterlimit="4" stroke-width="2.0870" d="M27.826 23.304h4.174c0.961 0 1.739 0.779 1.739 1.739v4.174c0 0.96-0.779 1.739-1.739 1.739h-4.174c-0.96 0-1.739-0.779-1.739-1.739v-4.174c0-0.96 0.779-1.739 1.739-1.739z"></path>
</symbol>

<symbol id="icon-GarageBand" viewBox="0 0 32 32">
<path d="M19.216 31.414c2.546-1.209 3.754-3.888 2.697-5.985s-3.978-2.815-6.524-1.606-3.754 3.888-2.697 5.985c1.057 2.096 3.978 2.816 6.524 1.607z"></path>
<path d="M20.748 4.123v16.534c0 0 0.021 1.962-1.161 2.254 0 0-3.207 0.319-4.199 0.911s1.489 2.659 1.489 2.659l0.425 2.161h2.769l2.021-0.351c0 0 0.593-1.716 0.593-5.379v-11.556c0 0-0.193-1.785 2.13-1.973l6.195-1.315c0 0 1.035-0.146 0.968-2.349l0.022-4.321c0 0 0.045-1.994-2.248-1.222l-7.744 1.597c0 0-1.366 0.178-1.259 2.349z"></path>
<path fill="none" stroke="#e63e43" style="stroke: var(--color1, #e63e43)" stroke-linejoin="miter" stroke-linecap="round" stroke-miterlimit="4" stroke-width="2.4615" d="M1.231 9.846h13.538"></path>
<path fill="none" stroke="#e63e43" style="stroke: var(--color1, #e63e43)" stroke-linejoin="miter" stroke-linecap="round" stroke-miterlimit="4" stroke-width="2.4615" d="M1.231 14.769h13.538"></path>
<path fill="none" stroke="#e63e43" style="stroke: var(--color1, #e63e43)" stroke-linejoin="miter" stroke-linecap="round" stroke-miterlimit="4" stroke-width="2.4615" d="M1.231 19.692h13.538"></path>
</symbol>

<symbol id="icon-download-3" viewBox="0 0 32 32">
<path fill="#c4c4c6" style="fill: var(--color10, #c4c4c6)" d="M15.994 31.988c8.833 0 15.994-7.161 15.994-15.994s-7.161-15.994-15.994-15.994c-8.833 0-15.994 7.161-15.994 15.994s7.161 15.994 15.994 15.994z"></path>
<path fill="#fff" style="fill: var(--color11, #fff)" d="M15.994 24.679c-0.682 0-1.241-0.558-1.241-1.241v-14.89c0-0.682 0.558-1.241 1.241-1.241s1.241 0.558 1.241 1.241v14.89c0 0.695-0.546 1.241-1.241 1.241z"></path>
<path fill="#fff" style="fill: var(--color11, #fff)" d="M15.994 24.679c-0.323 0-0.633-0.124-0.881-0.36-0.484-0.484-0.484-1.266 0-1.749l6.353-6.353c0.484-0.484 1.266-0.484 1.75 0s0.484 1.266 0 1.75l-6.34 6.353c-0.236 0.248-0.558 0.36-0.881 0.36z"></path>
<path fill="#fff" style="fill: var(--color11, #fff)" d="M15.994 24.679c-0.323 0-0.633-0.124-0.881-0.36l-6.353-6.353c-0.484-0.484-0.484-1.266 0-1.75s1.266-0.484 1.749 0l6.353 6.353c0.484 0.484 0.484 1.266 0 1.749-0.223 0.248-0.546 0.36-0.869 0.36z"></path>
</symbol>

</defs>
</svg>
